<?xml version="1.0" encoding="UTF-8" standalone="no"?><svg xmlns="http://www.w3.org/2000/svg" xmlns:xlink="http://www.w3.org/1999/xlink" contentScriptType="application/ecmascript" contentStyleType="text/css" height="892px" preserveAspectRatio="none" style="width:829px;height:892px;background:#FFFFFF;" version="1.1" viewBox="0 0 829 892" width="829px" zoomAndPan="magnify"><defs><filter height="300%" id="fsjq3k1f5xnnh" width="300%" x="-1" y="-1"><feGaussianBlur result="blurOut" stdDeviation="2.0"/><feColorMatrix in="blurOut" result="blurOut2" type="matrix" values="0 0 0 0 0 0 0 0 0 0 0 0 0 0 0 0 0 0 .4 0"/><feOffset dx="4.0" dy="4.0" in="blurOut2" result="blurOut3"/><feBlend in="SourceGraphic" in2="blurOut3" mode="normal"/></filter></defs><g><text fill="#000000" font-family="sans-serif" font-size="18" lengthAdjust="spacing" textLength="569" x="126.5" y="43.3486">Erreur "compte existant" à la création d'un Jeune Milo sur le CEJ</text><rect fill="#FFFFFF" filter="url(#fsjq3k1f5xnnh)" height="291.4609" style="stroke:#000000;stroke-width:2.0;" width="789" x="10" y="154.8906"/><rect fill="#FFFFFF" filter="url(#fsjq3k1f5xnnh)" height="330.5938" style="stroke:#000000;stroke-width:2.0;" width="802" x="10" y="460.3516"/><line style="stroke:#A80036;stroke-width:1.0;stroke-dasharray:5.0,5.0;" x1="68" x2="68" y1="137.8906" y2="807.9453"/><line style="stroke:#A80036;stroke-width:1.0;stroke-dasharray:5.0,5.0;" x1="153" x2="153" y1="137.8906" y2="807.9453"/><line style="stroke:#A80036;stroke-width:1.0;stroke-dasharray:5.0,5.0;" x1="249" x2="249" y1="137.8906" y2="807.9453"/><line style="stroke:#A80036;stroke-width:1.0;stroke-dasharray:5.0,5.0;" x1="635" x2="635" y1="137.8906" y2="807.9453"/><text fill="#000000" font-family="sans-serif" font-size="14" lengthAdjust="spacing" textLength="91" x="20" y="134.5889">Conseiller ML</text><ellipse cx="68.5" cy="64.5938" fill="#FEFECE" filter="url(#fsjq3k1f5xnnh)" rx="8" ry="8" style="stroke:#A80036;stroke-width:2.0;"/><path d="M68.5,72.5938 L68.5,99.5938 M55.5,80.5938 L81.5,80.5938 M68.5,99.5938 L55.5,114.5938 M68.5,99.5938 L81.5,114.5938 " fill="none" filter="url(#fsjq3k1f5xnnh)" style="stroke:#A80036;stroke-width:2.0;"/><text fill="#000000" font-family="sans-serif" font-size="14" lengthAdjust="spacing" textLength="91" x="20" y="819.9404">Conseiller ML</text><ellipse cx="68.5" cy="833.2422" fill="#FEFECE" filter="url(#fsjq3k1f5xnnh)" rx="8" ry="8" style="stroke:#A80036;stroke-width:2.0;"/><path d="M68.5,841.2422 L68.5,868.2422 M55.5,849.2422 L81.5,849.2422 M68.5,868.2422 L55.5,883.2422 M68.5,868.2422 L81.5,883.2422 " fill="none" filter="url(#fsjq3k1f5xnnh)" style="stroke:#A80036;stroke-width:2.0;"/><rect fill="#CBC3E3" filter="url(#fsjq3k1f5xnnh)" height="30.2969" style="stroke:#A80036;stroke-width:1.5;" width="49" x="127" y="102.5938"/><text fill="#000000" font-family="sans-serif" font-size="14" lengthAdjust="spacing" textLength="35" x="134" y="122.5889">i-Milo</text><rect fill="#CBC3E3" filter="url(#fsjq3k1f5xnnh)" height="30.2969" style="stroke:#A80036;stroke-width:1.5;" width="49" x="127" y="806.9453"/><text fill="#000000" font-family="sans-serif" font-size="14" lengthAdjust="spacing" textLength="35" x="134" y="826.9404">i-Milo</text><rect fill="#CBC3E3" filter="url(#fsjq3k1f5xnnh)" height="30.2969" style="stroke:#A80036;stroke-width:1.5;" width="114" x="190" y="102.5938"/><text fill="#000000" font-family="sans-serif" font-size="14" lengthAdjust="spacing" textLength="100" x="197" y="122.5889">Keycloak i-Milo</text><rect fill="#CBC3E3" filter="url(#fsjq3k1f5xnnh)" height="30.2969" style="stroke:#A80036;stroke-width:1.5;" width="114" x="190" y="806.9453"/><text fill="#000000" font-family="sans-serif" font-size="14" lengthAdjust="spacing" textLength="100" x="197" y="826.9404">Keycloak i-Milo</text><rect fill="#ADD8E6" filter="url(#fsjq3k1f5xnnh)" height="30.2969" style="stroke:#A80036;stroke-width:1.5;" width="36" x="615" y="102.5938"/><text fill="#000000" font-family="sans-serif" font-size="14" lengthAdjust="spacing" textLength="22" x="622" y="122.5889">CEJ</text><rect fill="#ADD8E6" filter="url(#fsjq3k1f5xnnh)" height="30.2969" style="stroke:#A80036;stroke-width:1.5;" width="36" x="615" y="806.9453"/><text fill="#000000" font-family="sans-serif" font-size="14" lengthAdjust="spacing" textLength="22" x="622" y="826.9404">CEJ</text><path d="M10,154.8906 L295,154.8906 L295,161.8906 L285,171.8906 L10,171.8906 L10,154.8906 " fill="#EEEEEE" style="stroke:#000000;stroke-width:1.0;"/><rect fill="none" height="291.4609" style="stroke:#000000;stroke-width:2.0;" width="789" x="10" y="154.8906"/><text fill="#000000" font-family="sans-serif" font-size="13" font-weight="bold" lengthAdjust="spacing" textLength="240" x="25" y="167.9575">Création du Jeune Milo sur le CEJ</text><polygon fill="#A80036" points="623,189.1563,633,193.1563,623,197.1563,627,193.1563" style="stroke:#A80036;stroke-width:1.0;"/><line style="stroke:#A80036;stroke-width:1.0;" x1="68.5" x2="629" y1="193.1563" y2="193.1563"/><text fill="#000000" font-family="sans-serif" font-size="13" font-weight="bold" lengthAdjust="spacing" textLength="9" x="209.75" y="188.0903">1</text><text fill="#000000" font-family="sans-serif" font-size="13" lengthAdjust="spacing" textLength="271" x="222.75" y="188.0903">Création du compte CEJ Jeune : infos Jeune</text><line style="stroke:#A80036;stroke-width:1.0;" x1="635" x2="677" y1="237.4219" y2="237.4219"/><line style="stroke:#A80036;stroke-width:1.0;" x1="677" x2="677" y1="237.4219" y2="250.4219"/><line style="stroke:#A80036;stroke-width:1.0;" x1="636" x2="677" y1="250.4219" y2="250.4219"/><polygon fill="#A80036" points="646,246.4219,636,250.4219,646,254.4219,642,250.4219" style="stroke:#A80036;stroke-width:1.0;"/><text fill="#000000" font-family="sans-serif" font-size="13" font-weight="bold" lengthAdjust="spacing" textLength="9" x="642" y="224.7896">2</text><text fill="#000000" font-family="sans-serif" font-size="13" lengthAdjust="spacing" textLength="72" x="655" y="217.2231">Check BDD</text><text fill="#000000" font-family="sans-serif" font-size="13" lengthAdjust="spacing" textLength="118" x="655" y="232.356">Jeune non existant</text><polygon fill="#A80036" points="260,275.5547,250,279.5547,260,283.5547,256,279.5547" style="stroke:#A80036;stroke-width:1.0;"/><line style="stroke:#A80036;stroke-width:1.0;" x1="254" x2="634" y1="279.5547" y2="279.5547"/><text fill="#000000" font-family="sans-serif" font-size="13" font-weight="bold" lengthAdjust="spacing" textLength="9" x="274.5" y="274.4888">3</text><text fill="#000000" font-family="sans-serif" font-size="13" lengthAdjust="spacing" textLength="322" x="287.5" y="274.4888">demande création de compte SSO Milo : idDossier</text><line style="stroke:#A80036;stroke-width:1.0;" x1="249" x2="291" y1="323.8203" y2="323.8203"/><line style="stroke:#A80036;stroke-width:1.0;" x1="291" x2="291" y1="323.8203" y2="336.8203"/><line style="stroke:#A80036;stroke-width:1.0;" x1="250" x2="291" y1="336.8203" y2="336.8203"/><polygon fill="#A80036" points="260,332.8203,250,336.8203,260,340.8203,256,336.8203" style="stroke:#A80036;stroke-width:1.0;"/><text fill="#000000" font-family="sans-serif" font-size="13" font-weight="bold" lengthAdjust="spacing" textLength="9" x="256" y="311.188">4</text><text fill="#000000" font-family="sans-serif" font-size="13" lengthAdjust="spacing" textLength="209" x="269" y="303.6216">Check aucun jeune lié au dossier</text><text fill="#000000" font-family="sans-serif" font-size="13" lengthAdjust="spacing" textLength="177" x="269" y="318.7544">Milo lie Jeune ML au compte</text><polygon fill="#A80036" points="623,361.9531,633,365.9531,623,369.9531,627,365.9531" style="stroke:#A80036;stroke-width:1.0;"/><line style="stroke:#A80036;stroke-width:1.0;" x1="249" x2="629" y1="365.9531" y2="365.9531"/><text fill="#000000" font-family="sans-serif" font-size="13" font-weight="bold" lengthAdjust="spacing" textLength="9" x="372" y="360.8872">5</text><text fill="#000000" font-family="sans-serif" font-size="13" lengthAdjust="spacing" textLength="127" x="385" y="360.8872">succès : id-keycloak</text><line style="stroke:#A80036;stroke-width:1.0;" x1="635" x2="677" y1="425.3516" y2="425.3516"/><line style="stroke:#A80036;stroke-width:1.0;" x1="677" x2="677" y1="425.3516" y2="438.3516"/><line style="stroke:#A80036;stroke-width:1.0;" x1="636" x2="677" y1="438.3516" y2="438.3516"/><polygon fill="#A80036" points="646,434.3516,636,438.3516,646,442.3516,642,438.3516" style="stroke:#A80036;stroke-width:1.0;"/><text fill="#000000" font-family="sans-serif" font-size="13" font-weight="bold" lengthAdjust="spacing" textLength="9" x="642" y="405.1528">6</text><text fill="#000000" font-family="sans-serif" font-size="13" lengthAdjust="spacing" textLength="132" x="655" y="390.02">Enregistrement BDD</text><text fill="#000000" font-family="sans-serif" font-size="13" lengthAdjust="spacing" textLength="71" x="655" y="405.1528">id-keycloak</text><text fill="#000000" font-family="sans-serif" font-size="13" lengthAdjust="spacing" textLength="69" x="655" y="420.2856">infos Jeune</text><path d="M10,460.3516 L236,460.3516 L236,467.3516 L226,477.3516 L10,477.3516 L10,460.3516 " fill="#EEEEEE" style="stroke:#000000;stroke-width:1.0;"/><rect fill="none" height="330.5938" style="stroke:#000000;stroke-width:2.0;" width="802" x="10" y="460.3516"/><text fill="#000000" font-family="sans-serif" font-size="13" font-weight="bold" lengthAdjust="spacing" textLength="181" x="25" y="473.4185">Reproduction de l'erreur</text><path d="M361,482.4844 L361,522.4844 L626,522.4844 L626,492.4844 L616,482.4844 L361,482.4844 " fill="#FBFB77" filter="url(#fsjq3k1f5xnnh)" style="stroke:#A80036;stroke-width:1.0;"/><path d="M616,482.4844 L616,492.4844 L626,492.4844 L616,482.4844 " fill="#FBFB77" style="stroke:#A80036;stroke-width:1.0;"/><text fill="#000000" font-family="sans-serif" font-size="13" lengthAdjust="spacing" textLength="215" x="367" y="499.5513">Suppression du compte CEJ Jeune</text><text fill="#000000" font-family="sans-serif" font-size="13" lengthAdjust="spacing" textLength="244" x="367" y="514.6841">Effectué par le conseiller ou le support</text><line style="stroke:#A80036;stroke-width:1.0;" x1="635" x2="677" y1="568.0156" y2="568.0156"/><line style="stroke:#A80036;stroke-width:1.0;" x1="677" x2="677" y1="568.0156" y2="581.0156"/><line style="stroke:#A80036;stroke-width:1.0;" x1="636" x2="677" y1="581.0156" y2="581.0156"/><polygon fill="#A80036" points="646,577.0156,636,581.0156,646,585.0156,642,581.0156" style="stroke:#A80036;stroke-width:1.0;"/><text fill="#000000" font-family="sans-serif" font-size="13" lengthAdjust="spacing" textLength="112" x="642" y="547.8169">Suppression BDD</text><text fill="#000000" font-family="sans-serif" font-size="13" lengthAdjust="spacing" textLength="69" x="642" y="562.9497">infos Jeune</text><polygon fill="#A80036" points="623,606.1484,633,610.1484,623,614.1484,627,610.1484" style="stroke:#A80036;stroke-width:1.0;"/><line style="stroke:#A80036;stroke-width:1.0;" x1="68.5" x2="629" y1="610.1484" y2="610.1484"/><text fill="#000000" font-family="sans-serif" font-size="13" font-weight="bold" lengthAdjust="spacing" textLength="36" x="196.25" y="605.0825">bis 1</text><text fill="#000000" font-family="sans-serif" font-size="13" lengthAdjust="spacing" textLength="271" x="236.25" y="605.0825">Création du compte CEJ Jeune : infos Jeune</text><line style="stroke:#A80036;stroke-width:1.0;" x1="635" x2="677" y1="654.4141" y2="654.4141"/><line style="stroke:#A80036;stroke-width:1.0;" x1="677" x2="677" y1="654.4141" y2="667.4141"/><line style="stroke:#A80036;stroke-width:1.0;" x1="636" x2="677" y1="667.4141" y2="667.4141"/><polygon fill="#A80036" points="646,663.4141,636,667.4141,646,671.4141,642,667.4141" style="stroke:#A80036;stroke-width:1.0;"/><text fill="#000000" font-family="sans-serif" font-size="13" font-weight="bold" lengthAdjust="spacing" textLength="36" x="642" y="641.7817">bis 2</text><text fill="#000000" font-family="sans-serif" font-size="13" lengthAdjust="spacing" textLength="72" x="682" y="634.2153">Check BDD</text><text fill="#000000" font-family="sans-serif" font-size="13" lengthAdjust="spacing" textLength="118" x="682" y="649.3481">Jeune non existant</text><polygon fill="#A80036" points="260,692.5469,250,696.5469,260,700.5469,256,696.5469" style="stroke:#A80036;stroke-width:1.0;"/><line style="stroke:#A80036;stroke-width:1.0;" x1="254" x2="634" y1="696.5469" y2="696.5469"/><text fill="#000000" font-family="sans-serif" font-size="13" font-weight="bold" lengthAdjust="spacing" textLength="36" x="261" y="691.481">bis 3</text><text fill="#000000" font-family="sans-serif" font-size="13" lengthAdjust="spacing" textLength="322" x="301" y="691.481">demande création de compte SSO Milo : idDossier</text><line style="stroke:#FF0000;stroke-width:1.0;" x1="249" x2="291" y1="740.8125" y2="740.8125"/><line style="stroke:#FF0000;stroke-width:1.0;" x1="291" x2="291" y1="740.8125" y2="753.8125"/><line style="stroke:#FF0000;stroke-width:1.0;" x1="250" x2="291" y1="753.8125" y2="753.8125"/><polygon fill="#FF0000" points="260,749.8125,250,753.8125,260,757.8125,256,753.8125" style="stroke:#FF0000;stroke-width:1.0;"/><text fill="#000000" font-family="sans-serif" font-size="13" font-weight="bold" lengthAdjust="spacing" textLength="36" x="256" y="728.1802">bis 4</text><text fill="#FF0000" font-family="sans-serif" font-size="13" lengthAdjust="spacing" textLength="110" x="300" y="720.6138">Un compte jeune</text><text fill="#FF0000" font-family="sans-serif" font-size="13" lengthAdjust="spacing" textLength="139" x="296" y="735.7466">est déjà lié au dossier</text><polygon fill="#A80036" points="623,778.9453,633,782.9453,623,786.9453,627,782.9453" style="stroke:#A80036;stroke-width:1.0;"/><line style="stroke:#A80036;stroke-width:1.0;" x1="249" x2="629" y1="782.9453" y2="782.9453"/><text fill="#000000" font-family="sans-serif" font-size="13" font-weight="bold" lengthAdjust="spacing" textLength="36" x="326" y="777.8794">bis 5</text><text fill="#000000" font-family="sans-serif" font-size="13" lengthAdjust="spacing" textLength="192" x="366" y="777.8794">Erreur : ce compte existe déjà</text><text fill="#888888" font-family="sans-serif" font-size="10" lengthAdjust="spacing" textLength="64" x="758" y="14.2822">Page Header</text><!--MD5=[0eb539b8a87cd95d43b88c3def927a9f]
@startuml

skinparam backgroundColor white

actor "Conseiller ML" as conseiller
participant "i-Milo" as milo #CBC3E3
participant "Keycloak i-Milo" as kckMilo 	#CBC3E3
participant "CEJ" as cej #ADD8E6

header Page Header

title Erreur "compte existant" à la création d'un Jeune Milo sur le CEJ

autonumber
group Création du Jeune Milo sur le CEJ
skinparam sequenceMessageAlign right
conseiller -> cej : Création du compte CEJ Jeune : infos Jeune
skinparam sequenceMessageAlign left
cej -> cej : Check BDD\nJeune non existant

skinparam sequenceMessageAlign center
cej -> kckMilo :demande création de compte SSO Milo : idDossier
kckMilo -> kckMilo : Check aucun jeune lié au dossier\nMilo lie Jeune ML au compte
kckMilo -> cej : succès : id-keycloak

skinparam sequenceMessageAlign left
cej -> cej : Enregistrement BDD\nid-keycloak\ninfos Jeune
end

group Reproduction de l'erreur
autonumber stop
note left cej : Suppression du compte CEJ Jeune\nEffectué par le conseiller ou le support
cej -> cej : Suppression BDD\ninfos Jeune
autonumber "<b>bis "
conseiller -> cej : Création du compte CEJ Jeune : infos Jeune
skinparam sequenceMessageAlign left
cej -> cej : Check BDD\nJeune non existant

skinparam sequenceMessageAlign center
cej -> kckMilo : demande création de compte SSO Milo : idDossier
kckMilo -[#red]> kckMilo :<color:red> Un compte jeune\n<color:red>est déjà lié au dossier
kckMilo -> cej : Erreur : ce compte existe déjà
end
@enduml

PlantUML version 1.2021.11(Sat Oct 02 13:26:11 GMT 2021)
(GPL source distribution)
Java Runtime: OpenJDK Runtime Environment
JVM: OpenJDK 64-Bit Server VM
Default Encoding: UTF-8
Language: en
Country: US
--></g></svg>