<?xml version="1.0" encoding="UTF-8" standalone="no"?><svg xmlns="http://www.w3.org/2000/svg" xmlns:xlink="http://www.w3.org/1999/xlink" contentScriptType="application/ecmascript" contentStyleType="text/css" height="892px" preserveAspectRatio="none" style="width:798px;height:892px;background:#FFFFFF;" version="1.1" viewBox="0 0 798 892" width="798px" zoomAndPan="magnify"><defs><filter height="300%" id="f1hx3ikuhrjxqm" width="300%" x="-1" y="-1"><feGaussianBlur result="blurOut" stdDeviation="2.0"/><feColorMatrix in="blurOut" result="blurOut2" type="matrix" values="0 0 0 0 0 0 0 0 0 0 0 0 0 0 0 0 0 0 .4 0"/><feOffset dx="4.0" dy="4.0" in="blurOut2" result="blurOut3"/><feBlend in="SourceGraphic" in2="blurOut3" mode="normal"/></filter></defs><g><text fill="#000000" font-family="sans-serif" font-size="18" lengthAdjust="spacing" textLength="569" x="111" y="43.3486">Erreur "compte existant" à la création d'un Jeune Milo sur le CEJ</text><rect fill="#FFFFFF" filter="url(#f1hx3ikuhrjxqm)" height="291.4609" style="stroke:#000000;stroke-width:2.0;" width="771" x="10" y="154.8906"/><rect fill="#FFFFFF" filter="url(#f1hx3ikuhrjxqm)" height="330.5938" style="stroke:#000000;stroke-width:2.0;" width="757" x="10" y="460.3516"/><line style="stroke:#A80036;stroke-width:1.0;stroke-dasharray:5.0,5.0;" x1="68" x2="68" y1="137.8906" y2="807.9453"/><line style="stroke:#A80036;stroke-width:1.0;stroke-dasharray:5.0,5.0;" x1="153" x2="153" y1="137.8906" y2="807.9453"/><line style="stroke:#A80036;stroke-width:1.0;stroke-dasharray:5.0,5.0;" x1="249" x2="249" y1="137.8906" y2="807.9453"/><line style="stroke:#A80036;stroke-width:1.0;stroke-dasharray:5.0,5.0;" x1="617" x2="617" y1="137.8906" y2="807.9453"/><text fill="#000000" font-family="sans-serif" font-size="14" lengthAdjust="spacing" textLength="91" x="20" y="134.5889">Conseiller ML</text><ellipse cx="68.5" cy="64.5938" fill="#FEFECE" filter="url(#f1hx3ikuhrjxqm)" rx="8" ry="8" style="stroke:#A80036;stroke-width:2.0;"/><path d="M68.5,72.5938 L68.5,99.5938 M55.5,80.5938 L81.5,80.5938 M68.5,99.5938 L55.5,114.5938 M68.5,99.5938 L81.5,114.5938 " fill="none" filter="url(#f1hx3ikuhrjxqm)" style="stroke:#A80036;stroke-width:2.0;"/><text fill="#000000" font-family="sans-serif" font-size="14" lengthAdjust="spacing" textLength="91" x="20" y="819.9404">Conseiller ML</text><ellipse cx="68.5" cy="833.2422" fill="#FEFECE" filter="url(#f1hx3ikuhrjxqm)" rx="8" ry="8" style="stroke:#A80036;stroke-width:2.0;"/><path d="M68.5,841.2422 L68.5,868.2422 M55.5,849.2422 L81.5,849.2422 M68.5,868.2422 L55.5,883.2422 M68.5,868.2422 L81.5,883.2422 " fill="none" filter="url(#f1hx3ikuhrjxqm)" style="stroke:#A80036;stroke-width:2.0;"/><rect fill="#CBC3E3" filter="url(#f1hx3ikuhrjxqm)" height="30.2969" style="stroke:#A80036;stroke-width:1.5;" width="49" x="127" y="102.5938"/><text fill="#000000" font-family="sans-serif" font-size="14" lengthAdjust="spacing" textLength="35" x="134" y="122.5889">i-Milo</text><rect fill="#CBC3E3" filter="url(#f1hx3ikuhrjxqm)" height="30.2969" style="stroke:#A80036;stroke-width:1.5;" width="49" x="127" y="806.9453"/><text fill="#000000" font-family="sans-serif" font-size="14" lengthAdjust="spacing" textLength="35" x="134" y="826.9404">i-Milo</text><rect fill="#CBC3E3" filter="url(#f1hx3ikuhrjxqm)" height="30.2969" style="stroke:#A80036;stroke-width:1.5;" width="114" x="190" y="102.5938"/><text fill="#000000" font-family="sans-serif" font-size="14" lengthAdjust="spacing" textLength="100" x="197" y="122.5889">Keycloak i-Milo</text><rect fill="#CBC3E3" filter="url(#f1hx3ikuhrjxqm)" height="30.2969" style="stroke:#A80036;stroke-width:1.5;" width="114" x="190" y="806.9453"/><text fill="#000000" font-family="sans-serif" font-size="14" lengthAdjust="spacing" textLength="100" x="197" y="826.9404">Keycloak i-Milo</text><rect fill="#ADD8E6" filter="url(#f1hx3ikuhrjxqm)" height="30.2969" style="stroke:#A80036;stroke-width:1.5;" width="36" x="597" y="102.5938"/><text fill="#000000" font-family="sans-serif" font-size="14" lengthAdjust="spacing" textLength="22" x="604" y="122.5889">CEJ</text><rect fill="#ADD8E6" filter="url(#f1hx3ikuhrjxqm)" height="30.2969" style="stroke:#A80036;stroke-width:1.5;" width="36" x="597" y="806.9453"/><text fill="#000000" font-family="sans-serif" font-size="14" lengthAdjust="spacing" textLength="22" x="604" y="826.9404">CEJ</text><path d="M10,154.8906 L295,154.8906 L295,161.8906 L285,171.8906 L10,171.8906 L10,154.8906 " fill="#EEEEEE" style="stroke:#000000;stroke-width:1.0;"/><rect fill="none" height="291.4609" style="stroke:#000000;stroke-width:2.0;" width="771" x="10" y="154.8906"/><text fill="#000000" font-family="sans-serif" font-size="13" font-weight="bold" lengthAdjust="spacing" textLength="240" x="25" y="167.9575">Création du Jeune Milo sur le CEJ</text><polygon fill="#A80036" points="605,189.1563,615,193.1563,605,197.1563,609,193.1563" style="stroke:#A80036;stroke-width:1.0;"/><line style="stroke:#A80036;stroke-width:1.0;" x1="68.5" x2="611" y1="193.1563" y2="193.1563"/><text fill="#000000" font-family="sans-serif" font-size="13" font-weight="bold" lengthAdjust="spacing" textLength="9" x="200.75" y="188.0903">1</text><text fill="#000000" font-family="sans-serif" font-size="13" lengthAdjust="spacing" textLength="271" x="213.75" y="188.0903">Création du compte CEJ Jeune : infos Jeune</text><line style="stroke:#A80036;stroke-width:1.0;" x1="617" x2="659" y1="237.4219" y2="237.4219"/><line style="stroke:#A80036;stroke-width:1.0;" x1="659" x2="659" y1="237.4219" y2="250.4219"/><line style="stroke:#A80036;stroke-width:1.0;" x1="618" x2="659" y1="250.4219" y2="250.4219"/><polygon fill="#A80036" points="628,246.4219,618,250.4219,628,254.4219,624,250.4219" style="stroke:#A80036;stroke-width:1.0;"/><text fill="#000000" font-family="sans-serif" font-size="13" font-weight="bold" lengthAdjust="spacing" textLength="9" x="624" y="224.7896">2</text><text fill="#000000" font-family="sans-serif" font-size="13" lengthAdjust="spacing" textLength="72" x="637" y="217.2231">Check BDD</text><text fill="#000000" font-family="sans-serif" font-size="13" lengthAdjust="spacing" textLength="118" x="637" y="232.356">Jeune non existant</text><polygon fill="#A80036" points="260,275.5547,250,279.5547,260,283.5547,256,279.5547" style="stroke:#A80036;stroke-width:1.0;"/><line style="stroke:#A80036;stroke-width:1.0;" x1="254" x2="616" y1="279.5547" y2="279.5547"/><text fill="#000000" font-family="sans-serif" font-size="13" font-weight="bold" lengthAdjust="spacing" textLength="9" x="265.5" y="274.4888">3</text><text fill="#000000" font-family="sans-serif" font-size="13" lengthAdjust="spacing" textLength="322" x="278.5" y="274.4888">demande création de compte SSO Milo : idDossier</text><line style="stroke:#FF0000;stroke-width:1.0;" x1="249" x2="291" y1="323.8203" y2="323.8203"/><line style="stroke:#FF0000;stroke-width:1.0;" x1="291" x2="291" y1="323.8203" y2="336.8203"/><line style="stroke:#FF0000;stroke-width:1.0;" x1="250" x2="291" y1="336.8203" y2="336.8203"/><polygon fill="#FF0000" points="260,332.8203,250,336.8203,260,340.8203,256,336.8203" style="stroke:#FF0000;stroke-width:1.0;"/><text fill="#000000" font-family="sans-serif" font-size="13" font-weight="bold" lengthAdjust="spacing" textLength="9" x="256" y="311.188">4</text><text fill="#FF0000" font-family="sans-serif" font-size="13" lengthAdjust="spacing" textLength="209" x="269" y="303.6216">Check aucun jeune lié au dossier</text><text fill="#FF0000" font-family="sans-serif" font-size="13" lengthAdjust="spacing" textLength="170" x="269" y="318.7544">On lie Jeune ML au compte</text><polygon fill="#A80036" points="605,361.9531,615,365.9531,605,369.9531,609,365.9531" style="stroke:#A80036;stroke-width:1.0;"/><line style="stroke:#A80036;stroke-width:1.0;" x1="249" x2="611" y1="365.9531" y2="365.9531"/><text fill="#000000" font-family="sans-serif" font-size="13" font-weight="bold" lengthAdjust="spacing" textLength="9" x="363" y="360.8872">5</text><text fill="#000000" font-family="sans-serif" font-size="13" lengthAdjust="spacing" textLength="127" x="376" y="360.8872">succès : id-keycloak</text><line style="stroke:#A80036;stroke-width:1.0;" x1="617" x2="659" y1="425.3516" y2="425.3516"/><line style="stroke:#A80036;stroke-width:1.0;" x1="659" x2="659" y1="425.3516" y2="438.3516"/><line style="stroke:#A80036;stroke-width:1.0;" x1="618" x2="659" y1="438.3516" y2="438.3516"/><polygon fill="#A80036" points="628,434.3516,618,438.3516,628,442.3516,624,438.3516" style="stroke:#A80036;stroke-width:1.0;"/><text fill="#000000" font-family="sans-serif" font-size="13" font-weight="bold" lengthAdjust="spacing" textLength="9" x="624" y="405.1528">6</text><text fill="#000000" font-family="sans-serif" font-size="13" lengthAdjust="spacing" textLength="132" x="637" y="390.02">Enregistrement BDD</text><text fill="#000000" font-family="sans-serif" font-size="13" lengthAdjust="spacing" textLength="71" x="637" y="405.1528">id-keycloak</text><text fill="#000000" font-family="sans-serif" font-size="13" lengthAdjust="spacing" textLength="69" x="637" y="420.2856">infos Jeune</text><path d="M10,460.3516 L236,460.3516 L236,467.3516 L226,477.3516 L10,477.3516 L10,460.3516 " fill="#EEEEEE" style="stroke:#000000;stroke-width:1.0;"/><rect fill="none" height="330.5938" style="stroke:#000000;stroke-width:2.0;" width="757" x="10" y="460.3516"/><text fill="#000000" font-family="sans-serif" font-size="13" font-weight="bold" lengthAdjust="spacing" textLength="181" x="25" y="473.4185">Reproduction de l'erreur</text><path d="M482,482.4844 L482,522.4844 L747,522.4844 L747,492.4844 L737,482.4844 L482,482.4844 " fill="#FBFB77" filter="url(#f1hx3ikuhrjxqm)" style="stroke:#A80036;stroke-width:1.0;"/><path d="M737,482.4844 L737,492.4844 L747,492.4844 L737,482.4844 " fill="#FBFB77" style="stroke:#A80036;stroke-width:1.0;"/><text fill="#000000" font-family="sans-serif" font-size="13" lengthAdjust="spacing" textLength="215" x="488" y="499.5513">Suppression du compte CEJ Jeune</text><text fill="#000000" font-family="sans-serif" font-size="13" lengthAdjust="spacing" textLength="244" x="488" y="514.6841">Effectué par le conseiller ou le support</text><line style="stroke:#A80036;stroke-width:1.0;" x1="617" x2="659" y1="568.0156" y2="568.0156"/><line style="stroke:#A80036;stroke-width:1.0;" x1="659" x2="659" y1="568.0156" y2="581.0156"/><line style="stroke:#A80036;stroke-width:1.0;" x1="618" x2="659" y1="581.0156" y2="581.0156"/><polygon fill="#A80036" points="628,577.0156,618,581.0156,628,585.0156,624,581.0156" style="stroke:#A80036;stroke-width:1.0;"/><text fill="#000000" font-family="sans-serif" font-size="13" font-weight="bold" lengthAdjust="spacing" textLength="9" x="624" y="555.3833">7</text><text fill="#000000" font-family="sans-serif" font-size="13" lengthAdjust="spacing" textLength="112" x="637" y="547.8169">Suppression BDD</text><text fill="#000000" font-family="sans-serif" font-size="13" lengthAdjust="spacing" textLength="69" x="637" y="562.9497">infos Jeune</text><polygon fill="#A80036" points="605,606.1484,615,610.1484,605,614.1484,609,610.1484" style="stroke:#A80036;stroke-width:1.0;"/><line style="stroke:#A80036;stroke-width:1.0;" x1="68.5" x2="611" y1="610.1484" y2="610.1484"/><text fill="#000000" font-family="sans-serif" font-size="13" font-weight="bold" lengthAdjust="spacing" textLength="9" x="200.75" y="605.0825">8</text><text fill="#000000" font-family="sans-serif" font-size="13" lengthAdjust="spacing" textLength="271" x="213.75" y="605.0825">Création du compte CEJ Jeune : infos Jeune</text><line style="stroke:#A80036;stroke-width:1.0;" x1="617" x2="659" y1="654.4141" y2="654.4141"/><line style="stroke:#A80036;stroke-width:1.0;" x1="659" x2="659" y1="654.4141" y2="667.4141"/><line style="stroke:#A80036;stroke-width:1.0;" x1="618" x2="659" y1="667.4141" y2="667.4141"/><polygon fill="#A80036" points="628,663.4141,618,667.4141,628,671.4141,624,667.4141" style="stroke:#A80036;stroke-width:1.0;"/><text fill="#000000" font-family="sans-serif" font-size="13" font-weight="bold" lengthAdjust="spacing" textLength="9" x="624" y="641.7817">9</text><text fill="#000000" font-family="sans-serif" font-size="13" lengthAdjust="spacing" textLength="72" x="637" y="634.2153">Check BDD</text><text fill="#000000" font-family="sans-serif" font-size="13" lengthAdjust="spacing" textLength="118" x="637" y="649.3481">Jeune non existant</text><polygon fill="#A80036" points="260,692.5469,250,696.5469,260,700.5469,256,696.5469" style="stroke:#A80036;stroke-width:1.0;"/><line style="stroke:#A80036;stroke-width:1.0;" x1="254" x2="616" y1="696.5469" y2="696.5469"/><text fill="#000000" font-family="sans-serif" font-size="13" font-weight="bold" lengthAdjust="spacing" textLength="18" x="261" y="691.481">10</text><text fill="#000000" font-family="sans-serif" font-size="13" lengthAdjust="spacing" textLength="322" x="283" y="691.481">demande création de compte SSO Milo : idDossier</text><line style="stroke:#FF0000;stroke-width:1.0;" x1="249" x2="291" y1="740.8125" y2="740.8125"/><line style="stroke:#FF0000;stroke-width:1.0;" x1="291" x2="291" y1="740.8125" y2="753.8125"/><line style="stroke:#FF0000;stroke-width:1.0;" x1="250" x2="291" y1="753.8125" y2="753.8125"/><polygon fill="#FF0000" points="260,749.8125,250,753.8125,260,757.8125,256,753.8125" style="stroke:#FF0000;stroke-width:1.0;"/><text fill="#000000" font-family="sans-serif" font-size="13" font-weight="bold" lengthAdjust="spacing" textLength="18" x="256" y="728.1802">11</text><text fill="#FF0000" font-family="sans-serif" font-size="13" lengthAdjust="spacing" textLength="110" x="282" y="720.6138">Un compte jeune</text><text fill="#FF0000" font-family="sans-serif" font-size="13" lengthAdjust="spacing" textLength="139" x="278" y="735.7466">est déjà lié au dossier</text><polygon fill="#A80036" points="605,778.9453,615,782.9453,605,786.9453,609,782.9453" style="stroke:#A80036;stroke-width:1.0;"/><line style="stroke:#A80036;stroke-width:1.0;" x1="249" x2="611" y1="782.9453" y2="782.9453"/><text fill="#000000" font-family="sans-serif" font-size="13" font-weight="bold" lengthAdjust="spacing" textLength="18" x="326" y="777.8794">12</text><text fill="#000000" font-family="sans-serif" font-size="13" lengthAdjust="spacing" textLength="192" x="348" y="777.8794">Erreur : ce compte existe déjà</text><text fill="#888888" font-family="sans-serif" font-size="10" lengthAdjust="spacing" textLength="64" x="727" y="14.2822">Page Header</text><!--MD5=[13264285d303877aebd30f64f2074516]
@startuml

skinparam backgroundColor white

actor "Conseiller ML" as conseiller
participant "i-Milo" as milo #CBC3E3
participant "Keycloak i-Milo" as kckMilo 	#CBC3E3
participant "CEJ" as cej #ADD8E6

header Page Header

title Erreur "compte existant" à la création d'un Jeune Milo sur le CEJ

autonumber
group Création du Jeune Milo sur le CEJ
skinparam sequenceMessageAlign right
conseiller -> cej : Création du compte CEJ Jeune : infos Jeune
skinparam sequenceMessageAlign left
cej -> cej : Check BDD\nJeune non existant

skinparam sequenceMessageAlign center
cej -> kckMilo :demande création de compte SSO Milo : idDossier
kckMilo -[#red]> kckMilo : <color:red>Check aucun jeune lié au dossier\n<color:red>On lie Jeune ML au compte
kckMilo -> cej : succès : id-keycloak

skinparam sequenceMessageAlign left
cej -> cej : Enregistrement BDD\nid-keycloak\ninfos Jeune
end

group Reproduction de l'erreur
note over  cej : Suppression du compte CEJ Jeune\nEffectué par le conseiller ou le support
cej -> cej : Suppression BDD\ninfos Jeune
conseiller -> cej : Création du compte CEJ Jeune : infos Jeune
skinparam sequenceMessageAlign left
cej -> cej : Check BDD\nJeune non existant

skinparam sequenceMessageAlign center
cej -> kckMilo : demande création de compte SSO Milo : idDossier
kckMilo -[#red]> kckMilo :<color:red> Un compte jeune\n<color:red>est déjà lié au dossier
kckMilo -> cej : Erreur : ce compte existe déjà
end
@enduml

PlantUML version 1.2021.11(Sat Oct 02 13:26:11 GMT 2021)
(GPL source distribution)
Java Runtime: OpenJDK Runtime Environment
JVM: OpenJDK 64-Bit Server VM
Default Encoding: UTF-8
Language: en
Country: US
--></g></svg>