<?xml version="1.0" encoding="UTF-8" standalone="no"?><svg xmlns="http://www.w3.org/2000/svg" xmlns:xlink="http://www.w3.org/1999/xlink" contentScriptType="application/ecmascript" contentStyleType="text/css" height="916px" preserveAspectRatio="none" style="width:1016px;height:916px;background:#FFFFFF;" version="1.1" viewBox="0 0 1016 916" width="1016px" zoomAndPan="magnify"><defs><filter height="300%" id="f1x9zoidp8yq15" width="300%" x="-1" y="-1"><feGaussianBlur result="blurOut" stdDeviation="2.0"/><feColorMatrix in="blurOut" result="blurOut2" type="matrix" values="0 0 0 0 0 0 0 0 0 0 0 0 0 0 0 0 0 0 .4 0"/><feOffset dx="4.0" dy="4.0" in="blurOut2" result="blurOut3"/><feBlend in="SourceGraphic" in2="blurOut3" mode="normal"/></filter></defs><g><text fill="#000000" font-family="sans-serif" font-size="18" lengthAdjust="spacing" textLength="369" x="320.25" y="43.3486">Flux d'authentification pour un Jeune Milo</text><rect fill="#FFFFFF" filter="url(#f1x9zoidp8yq15)" height="291.4609" style="stroke:#000000;stroke-width:2.0;" width="674.5" x="42" y="154.8906"/><rect fill="#FFFFFF" filter="url(#f1x9zoidp8yq15)" height="285.4609" style="stroke:#000000;stroke-width:2.0;" width="989.5" x="10" y="529.75"/><line style="stroke:#A80036;stroke-width:1.0;stroke-dasharray:5.0,5.0;" x1="104" x2="104" y1="137.8906" y2="832.2109"/><line style="stroke:#A80036;stroke-width:1.0;stroke-dasharray:5.0,5.0;" x1="193" x2="193" y1="137.8906" y2="832.2109"/><line style="stroke:#A80036;stroke-width:1.0;stroke-dasharray:5.0,5.0;" x1="289" x2="289" y1="137.8906" y2="832.2109"/><line style="stroke:#A80036;stroke-width:1.0;stroke-dasharray:5.0,5.0;" x1="552.5" x2="552.5" y1="137.8906" y2="832.2109"/><line style="stroke:#A80036;stroke-width:1.0;stroke-dasharray:5.0,5.0;" x1="780" x2="780" y1="137.8906" y2="832.2109"/><line style="stroke:#A80036;stroke-width:1.0;stroke-dasharray:5.0,5.0;" x1="881" x2="881" y1="137.8906" y2="832.2109"/><text fill="#000000" font-family="sans-serif" font-size="14" lengthAdjust="spacing" textLength="99" x="52" y="134.5889">Conseiller Milo</text><ellipse cx="104.5" cy="64.5938" fill="#FEFECE" filter="url(#f1x9zoidp8yq15)" rx="8" ry="8" style="stroke:#A80036;stroke-width:2.0;"/><path d="M104.5,72.5938 L104.5,99.5938 M91.5,80.5938 L117.5,80.5938 M104.5,99.5938 L91.5,114.5938 M104.5,99.5938 L117.5,114.5938 " fill="none" filter="url(#f1x9zoidp8yq15)" style="stroke:#A80036;stroke-width:2.0;"/><text fill="#000000" font-family="sans-serif" font-size="14" lengthAdjust="spacing" textLength="99" x="52" y="844.2061">Conseiller Milo</text><ellipse cx="104.5" cy="857.5078" fill="#FEFECE" filter="url(#f1x9zoidp8yq15)" rx="8" ry="8" style="stroke:#A80036;stroke-width:2.0;"/><path d="M104.5,865.5078 L104.5,892.5078 M91.5,873.5078 L117.5,873.5078 M104.5,892.5078 L91.5,907.5078 M104.5,892.5078 L117.5,907.5078 " fill="none" filter="url(#f1x9zoidp8yq15)" style="stroke:#A80036;stroke-width:2.0;"/><rect fill="#CBC3E3" filter="url(#f1x9zoidp8yq15)" height="30.2969" style="stroke:#A80036;stroke-width:1.5;" width="49" x="167" y="102.5938"/><text fill="#000000" font-family="sans-serif" font-size="14" lengthAdjust="spacing" textLength="35" x="174" y="122.5889">i-Milo</text><rect fill="#CBC3E3" filter="url(#f1x9zoidp8yq15)" height="30.2969" style="stroke:#A80036;stroke-width:1.5;" width="49" x="167" y="831.2109"/><text fill="#000000" font-family="sans-serif" font-size="14" lengthAdjust="spacing" textLength="35" x="174" y="851.2061">i-Milo</text><rect fill="#CBC3E3" filter="url(#f1x9zoidp8yq15)" height="30.2969" style="stroke:#A80036;stroke-width:1.5;" width="114" x="230" y="102.5938"/><text fill="#000000" font-family="sans-serif" font-size="14" lengthAdjust="spacing" textLength="100" x="237" y="122.5889">Keycloak i-Milo</text><rect fill="#CBC3E3" filter="url(#f1x9zoidp8yq15)" height="30.2969" style="stroke:#A80036;stroke-width:1.5;" width="114" x="230" y="831.2109"/><text fill="#000000" font-family="sans-serif" font-size="14" lengthAdjust="spacing" textLength="100" x="237" y="851.2061">Keycloak i-Milo</text><rect fill="#ADD8E6" filter="url(#f1x9zoidp8yq15)" height="30.2969" style="stroke:#A80036;stroke-width:1.5;" width="36" x="532.5" y="102.5938"/><text fill="#000000" font-family="sans-serif" font-size="14" lengthAdjust="spacing" textLength="22" x="539.5" y="122.5889">CEJ</text><rect fill="#ADD8E6" filter="url(#f1x9zoidp8yq15)" height="30.2969" style="stroke:#A80036;stroke-width:1.5;" width="36" x="532.5" y="831.2109"/><text fill="#000000" font-family="sans-serif" font-size="14" lengthAdjust="spacing" textLength="22" x="539.5" y="851.2061">CEJ</text><rect fill="#ADD8E6" filter="url(#f1x9zoidp8yq15)" height="30.2969" style="stroke:#A80036;stroke-width:1.5;" width="101" x="728" y="102.5938"/><text fill="#000000" font-family="sans-serif" font-size="14" lengthAdjust="spacing" textLength="87" x="735" y="122.5889">Keycloak CEJ</text><rect fill="#ADD8E6" filter="url(#f1x9zoidp8yq15)" height="30.2969" style="stroke:#A80036;stroke-width:1.5;" width="101" x="728" y="831.2109"/><text fill="#000000" font-family="sans-serif" font-size="14" lengthAdjust="spacing" textLength="87" x="735" y="851.2061">Keycloak CEJ</text><text fill="#000000" font-family="sans-serif" font-size="14" lengthAdjust="spacing" textLength="70" x="843" y="134.5889">Jeune Milo</text><ellipse cx="881" cy="64.5938" fill="#FEFECE" filter="url(#f1x9zoidp8yq15)" rx="8" ry="8" style="stroke:#A80036;stroke-width:2.0;"/><path d="M881,72.5938 L881,99.5938 M868,80.5938 L894,80.5938 M881,99.5938 L868,114.5938 M881,99.5938 L894,114.5938 " fill="none" filter="url(#f1x9zoidp8yq15)" style="stroke:#A80036;stroke-width:2.0;"/><text fill="#000000" font-family="sans-serif" font-size="14" lengthAdjust="spacing" textLength="70" x="843" y="844.2061">Jeune Milo</text><ellipse cx="881" cy="857.5078" fill="#FEFECE" filter="url(#f1x9zoidp8yq15)" rx="8" ry="8" style="stroke:#A80036;stroke-width:2.0;"/><path d="M881,865.5078 L881,892.5078 M868,873.5078 L894,873.5078 M881,892.5078 L868,907.5078 M881,892.5078 L894,907.5078 " fill="none" filter="url(#f1x9zoidp8yq15)" style="stroke:#A80036;stroke-width:2.0;"/><path d="M42,154.8906 L327,154.8906 L327,161.8906 L317,171.8906 L42,171.8906 L42,154.8906 " fill="#EEEEEE" style="stroke:#000000;stroke-width:1.0;"/><rect fill="none" height="291.4609" style="stroke:#000000;stroke-width:2.0;" width="674.5" x="42" y="154.8906"/><text fill="#000000" font-family="sans-serif" font-size="13" font-weight="bold" lengthAdjust="spacing" textLength="240" x="57" y="167.9575">Création du Jeune Milo sur le CEJ</text><polygon fill="#A80036" points="540.5,189.1563,550.5,193.1563,540.5,197.1563,544.5,193.1563" style="stroke:#A80036;stroke-width:1.0;"/><line style="stroke:#A80036;stroke-width:1.0;" x1="104.5" x2="546.5" y1="193.1563" y2="193.1563"/><text fill="#000000" font-family="sans-serif" font-size="13" font-weight="bold" lengthAdjust="spacing" textLength="9" x="186.5" y="188.0903">1</text><text fill="#000000" font-family="sans-serif" font-size="13" lengthAdjust="spacing" textLength="271" x="199.5" y="188.0903">Création du compte CEJ Jeune : infos Jeune</text><line style="stroke:#A80036;stroke-width:1.0;" x1="552.5" x2="594.5" y1="237.4219" y2="237.4219"/><line style="stroke:#A80036;stroke-width:1.0;" x1="594.5" x2="594.5" y1="237.4219" y2="250.4219"/><line style="stroke:#A80036;stroke-width:1.0;" x1="553.5" x2="594.5" y1="250.4219" y2="250.4219"/><polygon fill="#A80036" points="563.5,246.4219,553.5,250.4219,563.5,254.4219,559.5,250.4219" style="stroke:#A80036;stroke-width:1.0;"/><text fill="#000000" font-family="sans-serif" font-size="13" font-weight="bold" lengthAdjust="spacing" textLength="9" x="559.5" y="224.7896">2</text><text fill="#000000" font-family="sans-serif" font-size="13" lengthAdjust="spacing" textLength="72" x="572.5" y="217.2231">Check BDD</text><text fill="#000000" font-family="sans-serif" font-size="13" lengthAdjust="spacing" textLength="118" x="572.5" y="232.356">Jeune non existant</text><polygon fill="#A80036" points="204.5,275.5547,194.5,279.5547,204.5,283.5547,200.5,279.5547" style="stroke:#A80036;stroke-width:1.0;"/><line style="stroke:#A80036;stroke-width:1.0;" x1="198.5" x2="551.5" y1="279.5547" y2="279.5547"/><text fill="#000000" font-family="sans-serif" font-size="13" font-weight="bold" lengthAdjust="spacing" textLength="9" x="205.5" y="274.4888">3</text><text fill="#000000" font-family="sans-serif" font-size="13" lengthAdjust="spacing" textLength="322" x="218.5" y="274.4888">demande création de compte SSO Milo : idDossier</text><line style="stroke:#A80036;stroke-width:1.0;" x1="289" x2="331" y1="323.8203" y2="323.8203"/><line style="stroke:#A80036;stroke-width:1.0;" x1="331" x2="331" y1="323.8203" y2="336.8203"/><line style="stroke:#A80036;stroke-width:1.0;" x1="290" x2="331" y1="336.8203" y2="336.8203"/><polygon fill="#A80036" points="300,332.8203,290,336.8203,300,340.8203,296,336.8203" style="stroke:#A80036;stroke-width:1.0;"/><text fill="#000000" font-family="sans-serif" font-size="13" font-weight="bold" lengthAdjust="spacing" textLength="9" x="296" y="311.188">4</text><text fill="#000000" font-family="sans-serif" font-size="13" lengthAdjust="spacing" textLength="209" x="309" y="303.6216">Check aucun jeune lié au dossier</text><text fill="#000000" font-family="sans-serif" font-size="13" lengthAdjust="spacing" textLength="177" x="309" y="318.7544">Milo lie Jeune ML au compte</text><polygon fill="#A80036" points="540.5,361.9531,550.5,365.9531,540.5,369.9531,544.5,365.9531" style="stroke:#A80036;stroke-width:1.0;"/><line style="stroke:#A80036;stroke-width:1.0;" x1="193.5" x2="546.5" y1="365.9531" y2="365.9531"/><text fill="#000000" font-family="sans-serif" font-size="13" font-weight="bold" lengthAdjust="spacing" textLength="9" x="273" y="360.8872">5</text><text fill="#000000" font-family="sans-serif" font-size="13" lengthAdjust="spacing" textLength="187" x="286" y="360.8872">succès : id-keycloak = idAuth</text><line style="stroke:#A80036;stroke-width:1.0;" x1="552.5" x2="594.5" y1="425.3516" y2="425.3516"/><line style="stroke:#A80036;stroke-width:1.0;" x1="594.5" x2="594.5" y1="425.3516" y2="438.3516"/><line style="stroke:#A80036;stroke-width:1.0;" x1="553.5" x2="594.5" y1="438.3516" y2="438.3516"/><polygon fill="#A80036" points="563.5,434.3516,553.5,438.3516,563.5,442.3516,559.5,438.3516" style="stroke:#A80036;stroke-width:1.0;"/><text fill="#000000" font-family="sans-serif" font-size="13" font-weight="bold" lengthAdjust="spacing" textLength="9" x="559.5" y="405.1528">6</text><text fill="#000000" font-family="sans-serif" font-size="13" lengthAdjust="spacing" textLength="132" x="572.5" y="390.02">Enregistrement BDD</text><text fill="#000000" font-family="sans-serif" font-size="13" lengthAdjust="spacing" textLength="71" x="572.5" y="405.1528">id-keycloak</text><text fill="#000000" font-family="sans-serif" font-size="13" lengthAdjust="spacing" textLength="69" x="572.5" y="420.2856">infos Jeune</text><path d="M717,458.3516 L717,513.3516 L939,513.3516 L939,468.3516 L929,458.3516 L717,458.3516 " fill="#FBFB77" filter="url(#f1x9zoidp8yq15)" style="stroke:#A80036;stroke-width:1.0;"/><path d="M929,458.3516 L929,468.3516 L939,468.3516 L929,458.3516 " fill="#FBFB77" style="stroke:#A80036;stroke-width:1.0;"/><text fill="#000000" font-family="sans-serif" font-size="13" lengthAdjust="spacing" textLength="199" x="723" y="475.4185">À ce stade, le compte du jeune</text><text fill="#000000" font-family="sans-serif" font-size="13" lengthAdjust="spacing" textLength="201" x="723" y="490.5513">est inactif. Il est activé à l'étape</text><text fill="#000000" font-family="sans-serif" font-size="13" lengthAdjust="spacing" textLength="58" x="723" y="505.6841">suivante.</text><path d="M10,529.75 L274,529.75 L274,536.75 L264,546.75 L10,546.75 L10,529.75 " fill="#EEEEEE" style="stroke:#000000;stroke-width:1.0;"/><rect fill="none" height="285.4609" style="stroke:#000000;stroke-width:2.0;" width="989.5" x="10" y="529.75"/><text fill="#000000" font-family="sans-serif" font-size="13" font-weight="bold" lengthAdjust="spacing" textLength="219" x="25" y="542.8169">Connexion du Jeune sur le CEJ</text><polygon fill="#A80036" points="563.5,564.0156,553.5,568.0156,563.5,572.0156,559.5,568.0156" style="stroke:#A80036;stroke-width:1.0;"/><line style="stroke:#A80036;stroke-width:1.0;" x1="557.5" x2="880" y1="568.0156" y2="568.0156"/><text fill="#000000" font-family="sans-serif" font-size="13" font-weight="bold" lengthAdjust="spacing" textLength="9" x="582.75" y="562.9497">7</text><text fill="#000000" font-family="sans-serif" font-size="13" lengthAdjust="spacing" textLength="255" x="595.75" y="562.9497">Demande de connexion sur l'application</text><polygon fill="#A80036" points="300,593.1484,290,597.1484,300,601.1484,296,597.1484" style="stroke:#A80036;stroke-width:1.0;"/><line style="stroke:#A80036;stroke-width:1.0;" x1="294" x2="551.5" y1="597.1484" y2="597.1484"/><text fill="#000000" font-family="sans-serif" font-size="13" font-weight="bold" lengthAdjust="spacing" textLength="9" x="348.25" y="592.0825">8</text><text fill="#000000" font-family="sans-serif" font-size="13" lengthAdjust="spacing" textLength="132" x="361.25" y="592.0825">Redirection SSO Milo</text><polygon fill="#A80036" points="300,622.2813,290,626.2813,300,630.2813,296,626.2813" style="stroke:#A80036;stroke-width:1.0;"/><line style="stroke:#A80036;stroke-width:1.0;" x1="294" x2="880" y1="626.2813" y2="626.2813"/><text fill="#000000" font-family="sans-serif" font-size="13" font-weight="bold" lengthAdjust="spacing" textLength="9" x="533.5" y="621.2153">9</text><text fill="#000000" font-family="sans-serif" font-size="13" lengthAdjust="spacing" textLength="90" x="546.5" y="621.2153">ID + MDP Milo</text><polygon fill="#A80036" points="768.5,679.1133,778.5,683.1133,768.5,687.1133,772.5,683.1133" style="stroke:#A80036;stroke-width:1.0;"/><line style="stroke:#A80036;stroke-width:1.0;" x1="289" x2="774.5" y1="683.1133" y2="683.1133"/><text fill="#000000" font-family="sans-serif" font-size="13" font-weight="bold" lengthAdjust="spacing" textLength="18" x="388.25" y="670.481">10</text><text fill="#000000" font-family="sans-serif" font-size="13" lengthAdjust="spacing" textLength="161" x="465.25" y="662.9146">Authentification SSO Milo</text><text fill="#000000" font-family="sans-serif" font-size="13" lengthAdjust="spacing" textLength="271" x="410.25" y="678.0474">Nouvelle session keycloak CEJ : infos Jeune</text><path d="M20,639.2813 L20,694.2813 L280,694.2813 L280,649.2813 L270,639.2813 L20,639.2813 " fill="#FBFB77" filter="url(#f1x9zoidp8yq15)" style="stroke:#A80036;stroke-width:1.0;"/><path d="M270,639.2813 L270,649.2813 L280,649.2813 L270,639.2813 " fill="#FBFB77" style="stroke:#A80036;stroke-width:1.0;"/><text fill="#000000" font-family="sans-serif" font-size="13" lengthAdjust="spacing" textLength="231" x="26" y="656.3481">Ici, les infos Jeune envoyées sont les</text><text fill="#000000" font-family="sans-serif" font-size="13" lengthAdjust="spacing" textLength="196" x="26" y="671.481">dernières à jour de i-milo, pour</text><text fill="#000000" font-family="sans-serif" font-size="13" lengthAdjust="spacing" textLength="239" x="26" y="686.6138">un changement d'email par exemple.</text><polygon fill="#A80036" points="563.5,733.3789,553.5,737.3789,563.5,741.3789,559.5,737.3789" style="stroke:#A80036;stroke-width:1.0;"/><line style="stroke:#A80036;stroke-width:1.0;" x1="557.5" x2="779.5" y1="737.3789" y2="737.3789"/><text fill="#000000" font-family="sans-serif" font-size="13" font-weight="bold" lengthAdjust="spacing" textLength="18" x="564.5" y="732.313">11</text><text fill="#000000" font-family="sans-serif" font-size="13" lengthAdjust="spacing" textLength="182" x="586.5" y="732.313">Authent OK : infos utilisateur</text><path d="M312,708.6797 L312,748.6797 L543,748.6797 L543,718.6797 L533,708.6797 L312,708.6797 " fill="#FBFB77" filter="url(#f1x9zoidp8yq15)" style="stroke:#A80036;stroke-width:1.0;"/><path d="M533,708.6797 L533,718.6797 L543,718.6797 L533,708.6797 " fill="#FBFB77" style="stroke:#A80036;stroke-width:1.0;"/><text fill="#000000" font-family="sans-serif" font-size="13" lengthAdjust="spacing" textLength="206" x="318" y="725.7466">On crée l'utilisateur sur keycloak</text><text fill="#000000" font-family="sans-serif" font-size="13" lengthAdjust="spacing" textLength="210" x="318" y="740.8794">ici lors de la première connexion.</text><line style="stroke:#A80036;stroke-width:1.0;" x1="552.5" x2="594.5" y1="794.2109" y2="794.2109"/><line style="stroke:#A80036;stroke-width:1.0;" x1="594.5" x2="594.5" y1="794.2109" y2="807.2109"/><line style="stroke:#A80036;stroke-width:1.0;" x1="553.5" x2="594.5" y1="807.2109" y2="807.2109"/><polygon fill="#A80036" points="563.5,803.2109,553.5,807.2109,563.5,811.2109,559.5,807.2109" style="stroke:#A80036;stroke-width:1.0;"/><text fill="#000000" font-family="sans-serif" font-size="13" font-weight="bold" lengthAdjust="spacing" textLength="18" x="559.5" y="781.5786">12</text><text fill="#000000" font-family="sans-serif" font-size="13" lengthAdjust="spacing" textLength="126" x="581.5" y="774.0122">Get Jeune by idAuth</text><text fill="#000000" font-family="sans-serif" font-size="13" lengthAdjust="spacing" textLength="173" x="581.5" y="789.145">Update infos Jeune en BDD</text><path d="M766,764.4453 L766,804.4453 L980,804.4453 L980,774.4453 L970,764.4453 L766,764.4453 " fill="#FBFB77" filter="url(#f1x9zoidp8yq15)" style="stroke:#A80036;stroke-width:1.0;"/><path d="M970,764.4453 L970,774.4453 L980,774.4453 L970,764.4453 " fill="#FBFB77" style="stroke:#A80036;stroke-width:1.0;"/><text fill="#000000" font-family="sans-serif" font-size="13" lengthAdjust="spacing" textLength="193" x="772" y="781.5122">On synchronise les infos i-milo</text><text fill="#000000" font-family="sans-serif" font-size="13" lengthAdjust="spacing" textLength="187" x="772" y="796.645">avec nos infos Jeune en BDD.</text><text fill="#888888" font-family="sans-serif" font-size="10" lengthAdjust="spacing" textLength="64" x="945.5" y="14.2822">Page Header</text><!--MD5=[09de503fcf334baae8fc16c4c7155b23]
@startuml authentification-flux-milo

skinparam backgroundColor white

actor "Conseiller Milo" as conseiller
participant "i-Milo" as milo #CBC3E3
participant "Keycloak i-Milo" as kckMilo 	#CBC3E3
participant "CEJ" as cej #ADD8E6
participant "Keycloak CEJ" as kckCej #ADD8E6
actor "Jeune Milo" as jeune

header Page Header

title Flux d'authentification pour un Jeune Milo

autonumber
group Création du Jeune Milo sur le CEJ
skinparam sequenceMessageAlign right
conseiller -> cej : Création du compte CEJ Jeune : infos Jeune
skinparam sequenceMessageAlign left
cej -> cej : Check BDD\nJeune non existant

skinparam sequenceMessageAlign center
cej -> milo :demande création de compte SSO Milo : idDossier
kckMilo -> kckMilo : Check aucun jeune lié au dossier\nMilo lie Jeune ML au compte
milo -> cej : succès : id-keycloak = idAuth

skinparam sequenceMessageAlign left
cej -> cej : Enregistrement BDD\nid-keycloak\ninfos Jeune
end

note over kckCej, jeune : À ce stade, le compte du jeune\nest inactif. Il est activé à l'étape\nsuivante.

group Connexion du Jeune sur le CEJ
skinparam sequenceMessageAlign center
jeune -> cej : Demande de connexion sur l'application
cej -> kckMilo : Redirection SSO Milo
jeune -> kckMilo : ID + MDP Milo
kckMilo -> kckCej : Authentification SSO Milo\nNouvelle session keycloak CEJ : infos Jeune
note left : Ici, les infos Jeune envoyées sont les\ndernières à jour de i-milo, pour\nun changement d'email par exemple.
kckCej -> cej : Authent OK : infos utilisateur
note left : On crée l'utilisateur sur keycloak\nici lors de la première connexion.
cej -> cej : Get Jeune by idAuth\nUpdate infos Jeune en BDD
note right : On synchronise les infos i-milo\navec nos infos Jeune en BDD.

end
@enduml

PlantUML version 1.2021.11(Sat Oct 02 13:26:11 GMT 2021)
(GPL source distribution)
Java Runtime: OpenJDK Runtime Environment
JVM: OpenJDK 64-Bit Server VM
Default Encoding: UTF-8
Language: en
Country: US
--></g></svg>