<?xml version="1.0" encoding="UTF-8" standalone="no"?><svg xmlns="http://www.w3.org/2000/svg" xmlns:xlink="http://www.w3.org/1999/xlink" contentScriptType="application/ecmascript" contentStyleType="text/css" height="896px" preserveAspectRatio="none" style="width:827px;height:896px;background:#FFFFFF;" version="1.1" viewBox="0 0 827 896" width="827px" zoomAndPan="magnify"><defs><filter height="300%" id="f1u6r6b3fet10b" width="300%" x="-1" y="-1"><feGaussianBlur result="blurOut" stdDeviation="2.0"/><feColorMatrix in="blurOut" result="blurOut2" type="matrix" values="0 0 0 0 0 0 0 0 0 0 0 0 0 0 0 0 0 0 .4 0"/><feOffset dx="4.0" dy="4.0" in="blurOut2" result="blurOut3"/><feBlend in="SourceGraphic" in2="blurOut3" mode="normal"/></filter></defs><g><text fill="#000000" font-family="sans-serif" font-size="18" lengthAdjust="spacing" textLength="569" x="125.5" y="43.3486">Erreur "compte existant" à la création d'un Jeune Milo sur le CEJ</text><rect fill="#FFFFFF" filter="url(#f1u6r6b3fet10b)" height="291.4609" style="stroke:#000000;stroke-width:2.0;" width="800" x="10" y="154.8906"/><rect fill="#FFFFFF" filter="url(#f1u6r6b3fet10b)" height="334.5938" style="stroke:#000000;stroke-width:2.0;" width="795" x="10" y="460.3516"/><line style="stroke:#A80036;stroke-width:1.0;stroke-dasharray:5.0,5.0;" x1="68" x2="68" y1="137.8906" y2="811.9453"/><line style="stroke:#A80036;stroke-width:1.0;stroke-dasharray:5.0,5.0;" x1="153" x2="153" y1="137.8906" y2="811.9453"/><line style="stroke:#A80036;stroke-width:1.0;stroke-dasharray:5.0,5.0;" x1="249" x2="249" y1="137.8906" y2="811.9453"/><line style="stroke:#A80036;stroke-width:1.0;stroke-dasharray:5.0,5.0;" x1="646" x2="646" y1="137.8906" y2="811.9453"/><text fill="#000000" font-family="sans-serif" font-size="14" lengthAdjust="spacing" textLength="91" x="20" y="134.5889">Conseiller ML</text><ellipse cx="68.5" cy="64.5938" fill="#FEFECE" filter="url(#f1u6r6b3fet10b)" rx="8" ry="8" style="stroke:#A80036;stroke-width:2.0;"/><path d="M68.5,72.5938 L68.5,99.5938 M55.5,80.5938 L81.5,80.5938 M68.5,99.5938 L55.5,114.5938 M68.5,99.5938 L81.5,114.5938 " fill="none" filter="url(#f1u6r6b3fet10b)" style="stroke:#A80036;stroke-width:2.0;"/><text fill="#000000" font-family="sans-serif" font-size="14" lengthAdjust="spacing" textLength="91" x="20" y="823.9404">Conseiller ML</text><ellipse cx="68.5" cy="837.2422" fill="#FEFECE" filter="url(#f1u6r6b3fet10b)" rx="8" ry="8" style="stroke:#A80036;stroke-width:2.0;"/><path d="M68.5,845.2422 L68.5,872.2422 M55.5,853.2422 L81.5,853.2422 M68.5,872.2422 L55.5,887.2422 M68.5,872.2422 L81.5,887.2422 " fill="none" filter="url(#f1u6r6b3fet10b)" style="stroke:#A80036;stroke-width:2.0;"/><rect fill="#CBC3E3" filter="url(#f1u6r6b3fet10b)" height="30.2969" style="stroke:#A80036;stroke-width:1.5;" width="49" x="127" y="102.5938"/><text fill="#000000" font-family="sans-serif" font-size="14" lengthAdjust="spacing" textLength="35" x="134" y="122.5889">i-Milo</text><rect fill="#CBC3E3" filter="url(#f1u6r6b3fet10b)" height="30.2969" style="stroke:#A80036;stroke-width:1.5;" width="49" x="127" y="810.9453"/><text fill="#000000" font-family="sans-serif" font-size="14" lengthAdjust="spacing" textLength="35" x="134" y="830.9404">i-Milo</text><rect fill="#CBC3E3" filter="url(#f1u6r6b3fet10b)" height="30.2969" style="stroke:#A80036;stroke-width:1.5;" width="114" x="190" y="102.5938"/><text fill="#000000" font-family="sans-serif" font-size="14" lengthAdjust="spacing" textLength="100" x="197" y="122.5889">Keycloak i-Milo</text><rect fill="#CBC3E3" filter="url(#f1u6r6b3fet10b)" height="30.2969" style="stroke:#A80036;stroke-width:1.5;" width="114" x="190" y="810.9453"/><text fill="#000000" font-family="sans-serif" font-size="14" lengthAdjust="spacing" textLength="100" x="197" y="830.9404">Keycloak i-Milo</text><rect fill="#ADD8E6" filter="url(#f1u6r6b3fet10b)" height="30.2969" style="stroke:#A80036;stroke-width:1.5;" width="36" x="626" y="102.5938"/><text fill="#000000" font-family="sans-serif" font-size="14" lengthAdjust="spacing" textLength="22" x="633" y="122.5889">CEJ</text><rect fill="#ADD8E6" filter="url(#f1u6r6b3fet10b)" height="30.2969" style="stroke:#A80036;stroke-width:1.5;" width="36" x="626" y="810.9453"/><text fill="#000000" font-family="sans-serif" font-size="14" lengthAdjust="spacing" textLength="22" x="633" y="830.9404">CEJ</text><path d="M10,154.8906 L295,154.8906 L295,161.8906 L285,171.8906 L10,171.8906 L10,154.8906 " fill="#EEEEEE" style="stroke:#000000;stroke-width:1.0;"/><rect fill="none" height="291.4609" style="stroke:#000000;stroke-width:2.0;" width="800" x="10" y="154.8906"/><text fill="#000000" font-family="sans-serif" font-size="13" font-weight="bold" lengthAdjust="spacing" textLength="240" x="25" y="167.9575">Création du Jeune Milo sur le CEJ</text><polygon fill="#A80036" points="634,189.1563,644,193.1563,634,197.1563,638,193.1563" style="stroke:#A80036;stroke-width:1.0;"/><line style="stroke:#A80036;stroke-width:1.0;" x1="68.5" x2="640" y1="193.1563" y2="193.1563"/><text fill="#000000" font-family="sans-serif" font-size="13" font-weight="bold" lengthAdjust="spacing" textLength="9" x="215.25" y="188.0903">1</text><text fill="#000000" font-family="sans-serif" font-size="13" lengthAdjust="spacing" textLength="271" x="228.25" y="188.0903">Création du compte CEJ Jeune : infos Jeune</text><line style="stroke:#A80036;stroke-width:1.0;" x1="646" x2="688" y1="237.4219" y2="237.4219"/><line style="stroke:#A80036;stroke-width:1.0;" x1="688" x2="688" y1="237.4219" y2="250.4219"/><line style="stroke:#A80036;stroke-width:1.0;" x1="647" x2="688" y1="250.4219" y2="250.4219"/><polygon fill="#A80036" points="657,246.4219,647,250.4219,657,254.4219,653,250.4219" style="stroke:#A80036;stroke-width:1.0;"/><text fill="#000000" font-family="sans-serif" font-size="13" font-weight="bold" lengthAdjust="spacing" textLength="9" x="653" y="224.7896">2</text><text fill="#000000" font-family="sans-serif" font-size="13" lengthAdjust="spacing" textLength="72" x="666" y="217.2231">Check BDD</text><text fill="#000000" font-family="sans-serif" font-size="13" lengthAdjust="spacing" textLength="118" x="666" y="232.356">Jeune non existant</text><polygon fill="#A80036" points="260,275.5547,250,279.5547,260,283.5547,256,279.5547" style="stroke:#A80036;stroke-width:1.0;"/><line style="stroke:#A80036;stroke-width:1.0;" x1="254" x2="645" y1="279.5547" y2="279.5547"/><text fill="#000000" font-family="sans-serif" font-size="13" font-weight="bold" lengthAdjust="spacing" textLength="9" x="280" y="274.4888">3</text><text fill="#000000" font-family="sans-serif" font-size="13" lengthAdjust="spacing" textLength="322" x="293" y="274.4888">demande création de compte SSO Milo : idDossier</text><line style="stroke:#008000;stroke-width:1.0;" x1="249" x2="291" y1="323.8203" y2="323.8203"/><line style="stroke:#008000;stroke-width:1.0;" x1="291" x2="291" y1="323.8203" y2="336.8203"/><line style="stroke:#008000;stroke-width:1.0;" x1="250" x2="291" y1="336.8203" y2="336.8203"/><polygon fill="#008000" points="260,332.8203,250,336.8203,260,340.8203,256,336.8203" style="stroke:#008000;stroke-width:1.0;"/><text fill="#000000" font-family="sans-serif" font-size="13" font-weight="bold" lengthAdjust="spacing" textLength="9" x="256" y="311.188">4</text><text fill="#000000" font-family="sans-serif" font-size="13" lengthAdjust="spacing" textLength="209" x="269" y="303.6216">Check aucun jeune lié au dossier</text><text fill="#000000" font-family="sans-serif" font-size="13" lengthAdjust="spacing" textLength="170" x="269" y="318.7544">On lie Jeune ML au compte</text><polygon fill="#A80036" points="634,361.9531,644,365.9531,634,369.9531,638,365.9531" style="stroke:#A80036;stroke-width:1.0;"/><line style="stroke:#A80036;stroke-width:1.0;" x1="249" x2="640" y1="365.9531" y2="365.9531"/><text fill="#000000" font-family="sans-serif" font-size="13" font-weight="bold" lengthAdjust="spacing" textLength="9" x="377.5" y="360.8872">5</text><text fill="#000000" font-family="sans-serif" font-size="13" lengthAdjust="spacing" textLength="127" x="390.5" y="360.8872">succès : id-keycloak</text><line style="stroke:#A80036;stroke-width:1.0;" x1="646" x2="688" y1="425.3516" y2="425.3516"/><line style="stroke:#A80036;stroke-width:1.0;" x1="688" x2="688" y1="425.3516" y2="438.3516"/><line style="stroke:#A80036;stroke-width:1.0;" x1="647" x2="688" y1="438.3516" y2="438.3516"/><polygon fill="#A80036" points="657,434.3516,647,438.3516,657,442.3516,653,438.3516" style="stroke:#A80036;stroke-width:1.0;"/><text fill="#000000" font-family="sans-serif" font-size="13" font-weight="bold" lengthAdjust="spacing" textLength="9" x="653" y="405.1528">6</text><text fill="#000000" font-family="sans-serif" font-size="13" lengthAdjust="spacing" textLength="132" x="666" y="390.02">Enregistrement BDD</text><text fill="#000000" font-family="sans-serif" font-size="13" lengthAdjust="spacing" textLength="71" x="666" y="405.1528">id-keycloak</text><text fill="#000000" font-family="sans-serif" font-size="13" lengthAdjust="spacing" textLength="69" x="666" y="420.2856">infos Jeune</text><path d="M10,460.3516 L236,460.3516 L236,467.3516 L226,477.3516 L10,477.3516 L10,460.3516 " fill="#EEEEEE" style="stroke:#000000;stroke-width:1.0;"/><rect fill="none" height="334.5938" style="stroke:#000000;stroke-width:2.0;" width="795" x="10" y="460.3516"/><text fill="#000000" font-family="sans-serif" font-size="13" font-weight="bold" lengthAdjust="spacing" textLength="181" x="25" y="473.4185">Reproduction de l'erreur</text><polygon fill="#A80036" points="634,494.6172,644,498.6172,634,502.6172,638,498.6172" style="stroke:#A80036;stroke-width:1.0;"/><line style="stroke:#A80036;stroke-width:1.0;" x1="68.5" x2="640" y1="498.6172" y2="498.6172"/><text fill="#000000" font-family="sans-serif" font-size="13" font-weight="bold" lengthAdjust="spacing" textLength="9" x="222.25" y="493.5513">7</text><text fill="#000000" font-family="sans-serif" font-size="13" lengthAdjust="spacing" textLength="257" x="235.25" y="493.5513">Suppression du compte CEJ Jeune inactif</text><line style="stroke:#A80036;stroke-width:1.0;" x1="646" x2="688" y1="542.8828" y2="542.8828"/><line style="stroke:#A80036;stroke-width:1.0;" x1="688" x2="688" y1="542.8828" y2="555.8828"/><line style="stroke:#A80036;stroke-width:1.0;" x1="647" x2="688" y1="555.8828" y2="555.8828"/><polygon fill="#A80036" points="657,551.8828,647,555.8828,657,559.8828,653,555.8828" style="stroke:#A80036;stroke-width:1.0;"/><text fill="#000000" font-family="sans-serif" font-size="13" font-weight="bold" lengthAdjust="spacing" textLength="9" x="653" y="530.2505">8</text><text fill="#000000" font-family="sans-serif" font-size="13" lengthAdjust="spacing" textLength="112" x="666" y="522.6841">Suppression BDD</text><text fill="#000000" font-family="sans-serif" font-size="13" lengthAdjust="spacing" textLength="69" x="666" y="537.8169">infos Jeune</text><polygon fill="#A80036" points="634,581.0156,644,585.0156,634,589.0156,638,585.0156" style="stroke:#A80036;stroke-width:1.0;"/><line style="stroke:#A80036;stroke-width:1.0;" x1="68.5" x2="640" y1="585.0156" y2="585.0156"/><text fill="#000000" font-family="sans-serif" font-size="13" font-weight="bold" lengthAdjust="spacing" textLength="9" x="215.25" y="579.9497">9</text><text fill="#000000" font-family="sans-serif" font-size="13" lengthAdjust="spacing" textLength="271" x="228.25" y="579.9497">Création du compte CEJ Jeune : infos Jeune</text><line style="stroke:#A80036;stroke-width:1.0;" x1="646" x2="688" y1="629.2813" y2="629.2813"/><line style="stroke:#A80036;stroke-width:1.0;" x1="688" x2="688" y1="629.2813" y2="642.2813"/><line style="stroke:#A80036;stroke-width:1.0;" x1="647" x2="688" y1="642.2813" y2="642.2813"/><polygon fill="#A80036" points="657,638.2813,647,642.2813,657,646.2813,653,642.2813" style="stroke:#A80036;stroke-width:1.0;"/><text fill="#000000" font-family="sans-serif" font-size="13" font-weight="bold" lengthAdjust="spacing" textLength="18" x="653" y="616.6489">10</text><text fill="#000000" font-family="sans-serif" font-size="13" lengthAdjust="spacing" textLength="72" x="675" y="609.0825">Check BDD</text><text fill="#000000" font-family="sans-serif" font-size="13" lengthAdjust="spacing" textLength="118" x="675" y="624.2153">Jeune non existant</text><polygon fill="#A80036" points="260,667.4141,250,671.4141,260,675.4141,256,671.4141" style="stroke:#A80036;stroke-width:1.0;"/><line style="stroke:#A80036;stroke-width:1.0;" x1="254" x2="645" y1="671.4141" y2="671.4141"/><text fill="#000000" font-family="sans-serif" font-size="13" font-weight="bold" lengthAdjust="spacing" textLength="18" x="275.5" y="666.3481">11</text><text fill="#000000" font-family="sans-serif" font-size="13" lengthAdjust="spacing" textLength="322" x="297.5" y="666.3481">demande création de compte SSO Milo : idDossier</text><line style="stroke:#008000;stroke-width:1.0;" x1="249" x2="291" y1="715.6797" y2="715.6797"/><line style="stroke:#008000;stroke-width:1.0;" x1="291" x2="291" y1="715.6797" y2="728.6797"/><line style="stroke:#008000;stroke-width:1.0;" x1="250" x2="291" y1="728.6797" y2="728.6797"/><polygon fill="#008000" points="260,724.6797,250,728.6797,260,732.6797,256,728.6797" style="stroke:#008000;stroke-width:1.0;"/><text fill="#000000" font-family="sans-serif" font-size="13" font-weight="bold" lengthAdjust="spacing" textLength="18" x="256" y="703.0474">12</text><text fill="#000000" font-family="sans-serif" font-size="13" lengthAdjust="spacing" textLength="110" x="278" y="695.481">Un compte jeune</text><text fill="#000000" font-family="sans-serif" font-size="13" lengthAdjust="spacing" textLength="139" x="278" y="710.6138">est déjà lié au dossier</text><polygon fill="#A80036" points="634,753.8125,644,757.8125,634,761.8125,638,757.8125" style="stroke:#A80036;stroke-width:1.0;"/><line style="stroke:#A80036;stroke-width:1.0;" x1="249" x2="640" y1="757.8125" y2="757.8125"/><text fill="#000000" font-family="sans-serif" font-size="13" font-weight="bold" lengthAdjust="spacing" textLength="18" x="261" y="752.7466">13</text><text fill="#000000" font-family="sans-serif" font-size="13" lengthAdjust="spacing" textLength="351" x="283" y="752.7466">400 SUE_RECORD_ALREADY_ATTACHED_TO_ACCOUNT</text><polygon fill="#A80036" points="79.5,782.9453,69.5,786.9453,79.5,790.9453,75.5,786.9453" style="stroke:#A80036;stroke-width:1.0;"/><line style="stroke:#A80036;stroke-width:1.0;" x1="73.5" x2="645" y1="786.9453" y2="786.9453"/><text fill="#000000" font-family="sans-serif" font-size="13" font-weight="bold" lengthAdjust="spacing" textLength="18" x="250.25" y="781.8794">14</text><text fill="#000000" font-family="sans-serif" font-size="13" lengthAdjust="spacing" textLength="192" x="272.25" y="781.8794">Erreur : ce compte existe déjà</text><text fill="#888888" font-family="sans-serif" font-size="10" lengthAdjust="spacing" textLength="64" x="756" y="14.2822">Page Header</text><!--MD5=[12358d3c9a679e172031cae2f49bee2f]
@startuml

skinparam backgroundColor white

actor "Conseiller ML" as conseiller
participant "i-Milo" as milo #CBC3E3
participant "Keycloak i-Milo" as kckMilo 	#CBC3E3
participant "CEJ" as cej #ADD8E6

header Page Header

title Erreur "compte existant" à la création d'un Jeune Milo sur le CEJ

autonumber
group Création du Jeune Milo sur le CEJ
skinparam sequenceMessageAlign right
conseiller -> cej : Création du compte CEJ Jeune : infos Jeune
skinparam sequenceMessageAlign left
cej -> cej : Check BDD\nJeune non existant

skinparam sequenceMessageAlign center
cej -> kckMilo :demande création de compte SSO Milo : idDossier
kckMilo -[#green]> kckMilo : Check aucun jeune lié au dossier\nOn lie Jeune ML au compte
kckMilo -> cej : succès : id-keycloak

skinparam sequenceMessageAlign left
cej -> cej : Enregistrement BDD\nid-keycloak\ninfos Jeune
end

group Reproduction de l'erreur
conseiller -> cej : Suppression du compte CEJ Jeune inactif
cej -> cej : Suppression BDD\ninfos Jeune
conseiller -> cej : Création du compte CEJ Jeune : infos Jeune
skinparam sequenceMessageAlign left
cej -> cej : Check BDD\nJeune non existant

skinparam sequenceMessageAlign center
cej -> kckMilo : demande création de compte SSO Milo : idDossier
kckMilo -[#green]> kckMilo : Un compte jeune\nest déjà lié au dossier
kckMilo -> cej : 400 SUE_RECORD_ALREADY_ATTACHED_TO_ACCOUNT
cej -> conseiller : Erreur : ce compte existe déjà
end
@enduml

PlantUML version 1.2021.11(Sat Oct 02 13:26:11 GMT 2021)
(GPL source distribution)
Java Runtime: OpenJDK Runtime Environment
JVM: OpenJDK 64-Bit Server VM
Default Encoding: UTF-8
Language: en
Country: US
--></g></svg>